<svg id="Layer_1" data-name="Layer 1" xmlns="http://www.w3.org/2000/svg" viewBox="0 0 197.18 64.28"><title>black</title><path d="M16.78,56.47a4.44,4.44,0,0,1,3.3,4.58,5,5,0,0,1-.89,3,4.6,4.6,0,0,1-2.35,1.78,13.28,13.28,0,0,1-4.23.52h-11v-.44a1.27,1.27,0,0,0,.71-.38,1.36,1.36,0,0,0,.18-.81V49a1.46,1.46,0,0,0-.18-.83,1.21,1.21,0,0,0-.71-.36v-.45H12.87a11.64,11.64,0,0,1,2.75.27,5.11,5.11,0,0,1,1.92.87,4.56,4.56,0,0,1,1.92,3.94A4.24,4.24,0,0,1,16.78,56.47ZM4.65,55.54h7.29a18.84,18.84,0,0,0,2.32-.1,5.36,5.36,0,0,0,1.43-.36,2.61,2.61,0,0,0,1.24-1,2.91,2.91,0,0,0,.45-1.61,3,3,0,0,0-.79-2.08,3.37,3.37,0,0,0-1.66-.94,14.07,14.07,0,0,0-3.13-.25H4.65Zm0,9h7.6a20.29,20.29,0,0,0,2.42-.1A5.32,5.32,0,0,0,16.14,64a2.9,2.9,0,0,0,1.3-1.17,3.74,3.74,0,0,0-.35-4.12,3.49,3.49,0,0,0-1.74-1.07,13.38,13.38,0,0,0-3.24-.29H4.65Z" transform="translate(-1.58 -2.91)"/><path d="M26.14,64.79h9.47a1.44,1.44,0,0,0,.83-.18,1.2,1.2,0,0,0,.38-.71h.37v3.29h-.37a1.27,1.27,0,0,0-.38-.71,1.44,1.44,0,0,0-.83-.18H23.27v-.37a1.27,1.27,0,0,0,.71-.38,1.38,1.38,0,0,0,.18-.81V52.34a1.4,1.4,0,0,0-.18-.82,1.34,1.34,0,0,0-.71-.38v-.37H27v.37a1.34,1.34,0,0,0-.71.38,1.4,1.4,0,0,0-.18.82Z" transform="translate(-1.58 -2.91)"/><path d="M48.12,50.44a10,10,0,0,1,6.69,2.16A7.92,7.92,0,0,1,56.18,63q-2.51,3.69-8,3.69a9.94,9.94,0,0,1-6.66-2.17,7.43,7.43,0,0,1-2.7-5.93,7.69,7.69,0,0,1,1.32-4.41,7.94,7.94,0,0,1,3.92-3A12,12,0,0,1,48.12,50.44Zm0,1.61a7.34,7.34,0,0,0-5.45,2.08,6.3,6.3,0,0,0,0,8.82A7.42,7.42,0,0,0,48.15,65,7.4,7.4,0,0,0,53.63,63a5.91,5.91,0,0,0,1.8-4.33,6,6,0,0,0-1.8-4.49A7.6,7.6,0,0,0,48.12,52.05Z" transform="translate(-1.58 -2.91)"/><path d="M77.15,52.23l-1.91,3.05-.32-.2a2.58,2.58,0,0,0,.14-.65c0-.24-.44-.61-1.31-1.12a9.06,9.06,0,0,0-4.54-1.21,7.21,7.21,0,0,0-4.88,1.69,6.12,6.12,0,0,0-2.16,4.84,5.93,5.93,0,0,0,2,4.61A7.38,7.38,0,0,0,69.31,65a9.72,9.72,0,0,0,3.07-.48,7.39,7.39,0,0,0,2.47-1.33V60.37h-3.5a1.4,1.4,0,0,0-.82.18,1.18,1.18,0,0,0-.37.71h-.37V58h.37a1.21,1.21,0,0,0,.37.71,1.4,1.4,0,0,0,.82.18h6.12v.37a1.18,1.18,0,0,0-.71.37,1.4,1.4,0,0,0-.18.82V62a1.44,1.44,0,0,0,.18.83,1.18,1.18,0,0,0,.71.36v.32a12.5,12.5,0,0,1-8.39,3.1,9.29,9.29,0,0,1-6.18-2,8,8,0,0,1-2-2.63,7.73,7.73,0,0,1-.79-3.4,7.61,7.61,0,0,1,1.58-4.7,8.32,8.32,0,0,1,3.76-2.74,10.75,10.75,0,0,1,3.75-.65,11.09,11.09,0,0,1,3.14.42,18.73,18.73,0,0,1,3.4,1.48,1.25,1.25,0,0,0,.46.17c.11,0,.33-.19.65-.56Z" transform="translate(-1.58 -2.91)"/><path d="M96.29,49.18V64.67a1.38,1.38,0,0,0,.18.81,1.24,1.24,0,0,0,.7.38v.44h-4v-.44a1.27,1.27,0,0,0,.71-.38,1.36,1.36,0,0,0,.18-.81V49.18H87.7a1.41,1.41,0,0,0-.82.17,1.21,1.21,0,0,0-.37.71h-.44V46.49h.44a1.21,1.21,0,0,0,.37.71,1.49,1.49,0,0,0,.82.17h15a1.53,1.53,0,0,0,.83-.17,1.27,1.27,0,0,0,.37-.71h.44v3.57h-.44a1.27,1.27,0,0,0-.37-.71,1.45,1.45,0,0,0-.83-.17Z" transform="translate(-1.58 -2.91)"/><path d="M119.41,59.06H109.16v5.68a1.38,1.38,0,0,0,.18.81,1.24,1.24,0,0,0,.7.38v.37h-3.75v-.37a1.24,1.24,0,0,0,.7-.38,1.38,1.38,0,0,0,.18-.81V52.34a1.4,1.4,0,0,0-.18-.82,1.3,1.3,0,0,0-.7-.38v-.37H110v.37a1.3,1.3,0,0,0-.7.38,1.4,1.4,0,0,0-.18.82v5.21h10.25V52.34a1.4,1.4,0,0,0-.18-.82,1.34,1.34,0,0,0-.71-.38v-.37h3.76v.37a1.24,1.24,0,0,0-.71.39,1.38,1.38,0,0,0-.18.81v12.4a1.38,1.38,0,0,0,.18.81,1.24,1.24,0,0,0,.71.38v.37h-3.76v-.37a1.27,1.27,0,0,0,.71-.38,1.38,1.38,0,0,0,.18-.81Z" transform="translate(-1.58 -2.91)"/><path d="M128.48,59.27v5.47a1.38,1.38,0,0,0,.18.81,1.24,1.24,0,0,0,.7.38v.37H125.6v-.37a1.27,1.27,0,0,0,.72-.38,1.48,1.48,0,0,0,.17-.81V52.34a1.4,1.4,0,0,0-.18-.82,1.3,1.3,0,0,0-.71-.38v-.37h9.23a12.05,12.05,0,0,1,2.56.22,4.71,4.71,0,0,1,1.72.75,3.83,3.83,0,0,1,1.61,3.33,3.64,3.64,0,0,1-1.12,2.82,5.54,5.54,0,0,1-3.3,1.24l3.89,6.19a1.42,1.42,0,0,0,.41.43,2.62,2.62,0,0,0,.72.18v.37h-3.85v-.37c.36-.08.54-.19.54-.35a1.7,1.7,0,0,0-.31-.66l-3.58-5.65Zm0-1.51h5.9a16.4,16.4,0,0,0,2.15-.1,3.45,3.45,0,0,0,1.21-.39,2.21,2.21,0,0,0,1.09-2.12,2.52,2.52,0,0,0-1-2.19,5.69,5.69,0,0,0-3.2-.68h-6.13Z" transform="translate(-1.58 -2.91)"/><path d="M152.48,50.44a10,10,0,0,1,6.69,2.16A7.92,7.92,0,0,1,160.54,63q-2.5,3.69-8,3.69a9.92,9.92,0,0,1-6.66-2.17,7.43,7.43,0,0,1-2.7-5.93,7.69,7.69,0,0,1,1.32-4.41,7.94,7.94,0,0,1,3.92-3A12,12,0,0,1,152.48,50.44Zm0,1.61A7.34,7.34,0,0,0,147,54.13,6.3,6.3,0,0,0,147,63a8.26,8.26,0,0,0,11,0,5.91,5.91,0,0,0,1.8-4.33,6,6,0,0,0-1.8-4.49A7.61,7.61,0,0,0,152.48,52.05Z" transform="translate(-1.58 -2.91)"/><path d="M167.36,53.2V64.74a1.38,1.38,0,0,0,.18.81,1.2,1.2,0,0,0,.71.38v.37h-3.43v-.37a1.27,1.27,0,0,0,.72-.38,1.48,1.48,0,0,0,.17-.81V52.34a1.4,1.4,0,0,0-.18-.82,1.3,1.3,0,0,0-.71-.38v-.37h5.05v.37c-.48.16-.72.4-.72.73a1.64,1.64,0,0,0,.53,1l9.16,10.27V52.34a1.33,1.33,0,0,0-.18-.82,1.3,1.3,0,0,0-.7-.38v-.37h3.42v.37a1.3,1.3,0,0,0-.7.38,1.4,1.4,0,0,0-.18.82v12.4a1.39,1.39,0,0,0,.17.81,1.2,1.2,0,0,0,.71.38v.37h-4.06v-.37q.72-.18.72-.57c0-.19-.22-.54-.67-1Z" transform="translate(-1.58 -2.91)"/><path d="M187.58,59v5.75h9.6a1.4,1.4,0,0,0,.82-.18,1.15,1.15,0,0,0,.37-.71h.39v3.29h-.39a1.21,1.21,0,0,0-.36-.71,1.4,1.4,0,0,0-.82-.18H184.71v-.37a1.2,1.2,0,0,0,.71-.38,1.38,1.38,0,0,0,.18-.81V52.34a1.4,1.4,0,0,0-.18-.82,1.34,1.34,0,0,0-.71-.38v-.37H197.1a1.36,1.36,0,0,0,.81-.18,1.27,1.27,0,0,0,.38-.71h.37v3.29h-.37a1.24,1.24,0,0,0-.38-.71,1.36,1.36,0,0,0-.81-.18h-9.52v5.24h6.06a1.4,1.4,0,0,0,.82-.18,1.23,1.23,0,0,0,.37-.7h.38v3.28h-.38a1.21,1.21,0,0,0-.38-.71,1.39,1.39,0,0,0-.81-.17Z" transform="translate(-1.58 -2.91)"/><path d="M99.74,42.71a19.9,19.9,0,1,1,19.9-19.9A19.93,19.93,0,0,1,99.74,42.71Zm0-38.25a18.35,18.35,0,1,0,18.35,18.35A18.37,18.37,0,0,0,99.74,4.46Z" transform="translate(-1.58 -2.91)"/><path d="M105.05,29.63a18.51,18.51,0,0,1-1.21-10.78h-8.2a18.51,18.51,0,0,1-1.21,10.78l5,9.58V31s0-.16.06-.42a1.25,1.25,0,0,1,.22-2.48h0a1.24,1.24,0,0,1,.25,2.45c0,.28.07.46.07.44v8.21Z" transform="translate(-1.58 -2.91)"/><path d="M99.74,6.41l2.19,4L101.08,13a.77.77,0,0,0,.1.66.76.76,0,0,0,.59.3h.1a.72.72,0,0,0,.71-.62l.41-2.69,4-4.23-3.25,11.47H95.77L92.52,6.41l4,4.23.41,2.69a.72.72,0,0,0,.71.62h.1a.76.76,0,0,0,.59-.3.77.77,0,0,0,.1-.66l-.85-2.54Z" transform="translate(-1.58 -2.91)"/></svg>