<svg id="Layer_1" data-name="Layer 1" xmlns="http://www.w3.org/2000/svg" viewBox="0 0 16 16"><defs><style>.cls-1{fill:#fff;}</style></defs><title>FAVicon</title><circle cx="8.01" cy="7.99" r="7.74"/><path class="cls-1" d="M95.43,45.78a8,8,0,1,1,8-8A8,8,0,0,1,95.43,45.78Zm0-15.37a7.38,7.38,0,1,0,7.38,7.37A7.37,7.37,0,0,0,95.43,30.41Z" transform="translate(-87.43 -29.78)"/><path class="cls-1" d="M97.57,40.52a7.36,7.36,0,0,1-.49-4.33h-3.3a7.4,7.4,0,0,1-.48,4.33l2,3.85v-3.3l0-.17a.5.5,0,0,1-.42-.49.5.5,0,0,1,.5-.5h0a.51.51,0,0,1,.49.5.51.51,0,0,1-.39.49l0,.17v3.3Z" transform="translate(-87.43 -29.78)"/><path class="cls-1" d="M95.43,31.19l.88,1.62-.34,1a.31.31,0,0,0,0,.26.31.31,0,0,0,.24.12h0a.29.29,0,0,0,.28-.25l.17-1.08,1.59-1.7L97,35.8H93.84l-1.31-4.61,1.6,1.7L94.29,34a.29.29,0,0,0,.29.25h0a.3.3,0,0,0,.24-.12.31.31,0,0,0,0-.26l-.34-1Z" transform="translate(-87.43 -29.78)"/></svg>